<svg width="258" height="314" viewBox="0 0 258 314" fill="none" xmlns="http://www.w3.org/2000/svg">
<path d="M93.6689 4.4097H257.169L190.669 106.91L115.669 220.41V106.91H11.1689L93.6689 4.4097Z" fill="black"/>
<path d="M141.131 211.41H199.669V313.41H114.669V260.41L141.131 211.41Z" fill="black"/>
<path d="M159.669 191.41L200.063 130.56V191.41H159.669Z" fill="black"/>
<path d="M190.27 107.613L114.97 219L114.97 107.613L190.27 107.613Z" fill="black"/>
<path d="M4.66897 4.40967L12.169 4.4097L4.66903 13.9097L4.66897 4.40967Z" fill="black"/>
<path d="M4.66899 4.40964L12.169 4.40967L4.66897 14.1196L4.66899 4.40964Z" fill="black"/>
<path d="M20.6691 4.40961L25.6688 4.40961L4.66878 31.9097L4.66895 25.6057L20.6691 4.40961Z" fill="black"/>
<path d="M34.2527 4.4096L38.169 4.40968L4.66895 48.4097L4.66903 43.4098L34.2527 4.4096Z" fill="black"/>
<path d="M46.6691 4.40973L51.669 4.4098L4.66894 66.4097L4.66899 59.9097L46.6691 4.40973Z" fill="black"/>
<path d="M60.6689 4.4097L67.169 4.4097L5.16893 83.4097L5.16893 77.4097L60.6689 4.4097Z" fill="black"/>
<path d="M79.1688 4.40965L85.6687 4.40965L5.16894 106.91L5.16889 98.9097L79.1688 4.40965Z" fill="black"/>
</svg>
